<svg width="414" height="54" viewBox="0 0 414 54" fill="none" xmlns="http://www.w3.org/2000/svg">
<path d="M414 10.0218C413.626 10.0566 413.336 10.0893 412.955 10.1242C410.988 10.3046 408.94 10.4857 406.814 10.6661C404.688 10.8464 402.485 11.026 400.208 11.203C397.931 11.38 395.58 11.5544 393.159 11.7248C390.737 11.8952 388.245 12.0615 385.686 12.222C383.127 12.3825 380.501 12.5371 377.812 12.6844C375.122 12.8317 372.369 12.9716 369.556 13.1024C366.743 13.2332 363.87 13.3548 360.94 13.4658C358.011 13.5768 355.025 13.6771 351.986 13.7651C348.946 13.853 345.854 13.9286 342.712 13.9902C339.57 14.0518 336.379 14.0995 333.141 14.1314C329.904 14.1634 326.62 14.1796 323.294 14.1787C319.968 14.1778 316.599 14.1595 313.191 14.1223C309.783 14.0851 306.336 14.0289 302.854 13.9522C299.371 13.8755 295.853 13.7784 292.302 13.6589C288.752 13.5394 285.169 13.3976 281.558 13.232C277.947 13.0665 274.307 12.877 270.642 12.6621C266.977 12.4471 263.287 12.2067 259.575 11.9391C257.719 11.8053 255.857 11.6647 253.991 11.5171C252.125 11.3695 250.253 11.215 248.377 11.0532C246.501 10.8914 244.621 10.7224 242.736 10.546C240.852 10.3696 238.963 10.1858 237.071 9.99444C235.178 9.80305 233.282 9.60406 231.383 9.39724C229.484 9.19042 227.581 8.97576 225.676 8.7531C223.77 8.53045 221.862 8.29976 219.952 8.06086C218.041 7.82195 216.128 7.57489 214.213 7.31932C212.298 7.06376 210.382 6.79966 208.463 6.52703C206.545 6.2544 204.625 5.9732 202.704 5.68309C200.784 5.39298 198.869 5.11536 196.962 4.85004C195.054 4.58472 193.153 4.33172 191.258 4.09056C189.364 3.84939 187.477 3.62009 185.597 3.40243C183.717 3.18477 181.844 2.97868 179.978 2.78389C178.113 2.5891 176.255 2.4056 174.405 2.23303C172.555 2.06047 170.713 1.89879 168.878 1.7478C167.044 1.59681 165.217 1.45647 163.399 1.32642C161.581 1.19637 159.772 1.07674 157.97 0.966982C156.169 0.857222 154.376 0.757389 152.592 0.66728C150.808 0.577171 149.033 0.49679 147.267 0.425689C145.501 0.354587 143.744 0.29275 141.997 0.240009C140.249 0.187272 138.511 0.143498 136.783 0.108478C135.054 0.0734586 133.335 0.0472663 131.626 0.0293236C129.917 0.0113867 128.218 0.00170483 126.529 0.000190156C124.84 -0.00123341 123.161 0.00534541 121.493 0.0196096C119.825 0.0339022 118.167 0.0557992 116.519 0.0852273C114.872 0.114655 113.235 0.151496 111.61 0.195427C109.984 0.239356 108.37 0.290359 106.766 0.34815C105.163 0.405941 103.571 0.470615 101.991 0.541623C100.41 0.612631 98.8407 0.690065 97.2834 0.773648C95.7261 0.857229 94.1806 0.946949 92.6471 1.04246C91.1137 1.13797 89.5921 1.23934 88.083 1.34613C85.0647 1.55973 82.0957 1.79526 79.1782 2.05015C76.2606 2.30504 73.3945 2.57922 70.582 2.87025C67.7694 3.16128 65.0106 3.46911 62.3073 3.79114C59.604 4.11317 56.9565 4.44948 54.3669 4.79736C51.7772 5.14524 49.2454 5.50474 46.7736 5.87333C44.3018 6.24191 41.8901 6.61957 39.5405 7.00372C37.191 7.38787 34.9036 7.7784 32.6806 8.17296C30.4575 8.56752 28.2987 8.96607 26.2064 9.3659C24.1142 9.76572 22.0884 10.1668 20.1313 10.5668C18.1742 10.9667 16.2857 11.3655 14.468 11.7604C12.6503 12.1554 10.9033 12.5464 9.22936 12.9312C7.55539 13.3159 5.95436 13.6943 4.42842 14.0638C2.90247 14.4332 1.45174 14.7937 0.0781257 15.1427C0.0505161 15.1497 0.0275466 15.156 0 15.163V54H414V10.0218Z" fill="#F8CF2C"/>
</svg>
