<svg width="45" height="45" viewBox="0 0 45 45" fill="none" xmlns="http://www.w3.org/2000/svg">
<circle cx="22.5" cy="22.5" r="22.5" fill="white" fill-opacity="0.83"/>
<path d="M29.3074 23.0211H28.2672C27.9904 23.4342 27.698 23.8317 27.3949 24.2023H28.4864L31.8917 30.4598H14.1065L17.5128 24.2023H18.6043C18.3012 23.829 18.0088 23.4315 17.731 23.0211H16.6908L12 31.6408H34L29.3074 23.0211Z" fill="#2367B1"/>
<path d="M22.9995 12.4391C19.5662 12.4391 16.7832 14.9374 16.7832 18.0177C16.7832 22.8515 22.9995 27.3146 22.9995 27.3146C22.9995 27.3146 29.2158 22.8515 29.2158 18.0177C29.2148 14.9374 26.4328 12.4391 22.9995 12.4391ZM22.9995 20.2509C21.6283 20.2509 20.5128 19.2516 20.5128 18.0184C20.5128 16.787 21.6283 15.7877 22.9995 15.7877C24.3697 15.7877 25.4862 16.787 25.4862 18.0184C25.4853 19.2507 24.3697 20.2509 22.9995 20.2509Z" fill="#2367B1"/>
</svg>
