<svg width="20" height="24" viewBox="0 0 20 24" fill="none" xmlns="http://www.w3.org/2000/svg">
<path d="M10.0101 13.105C11.8064 13.105 13.2626 11.6477 13.2626 9.85C13.2626 8.05231 11.8064 6.595 10.0101 6.595C8.21376 6.595 6.75757 8.05231 6.75757 9.85C6.75757 11.6477 8.21376 13.105 10.0101 13.105Z" stroke="#2367B1" stroke-width="1.33333" stroke-linecap="round" stroke-linejoin="round"/>
<path d="M10.01 22.5445C15.7561 17.445 18.6833 13.105 18.6833 9.85C18.6833 7.54792 17.7695 5.34013 16.143 3.71231C14.5164 2.0845 12.3103 1.17 10.01 1.17C7.70969 1.17 5.5036 2.0845 3.87703 3.71231C2.25047 5.34013 1.33667 7.54792 1.33667 9.85C1.33667 13.105 4.26392 17.3365 10.01 22.5445Z" stroke="#2367B1" stroke-width="1.33333" stroke-linecap="round" stroke-linejoin="round"/>
</svg>
