<svg width="307" height="55" viewBox="0 0 307 55" fill="none" xmlns="http://www.w3.org/2000/svg">
<path d="M0 7C0 3.13401 3.13401 0 7 0H300C303.866 0 307 3.13401 307 7V48C307 51.866 303.866 55 300 55H6.99999C3.134 55 0 51.866 0 48V7Z" fill="white" fill-opacity="0.83"/>
<path d="M98.562 34.144C97.602 34.144 96.684 34 95.808 33.712C94.932 33.412 94.242 33.028 93.738 32.56L94.404 31.156C94.884 31.576 95.496 31.924 96.24 32.2C96.984 32.476 97.758 32.614 98.562 32.614C99.294 32.614 99.888 32.53 100.344 32.362C100.8 32.194 101.136 31.966 101.352 31.678C101.568 31.378 101.676 31.042 101.676 30.67C101.676 30.238 101.532 29.89 101.244 29.626C100.968 29.362 100.602 29.152 100.146 28.996C99.702 28.828 99.21 28.684 98.67 28.564C98.13 28.444 97.584 28.306 97.032 28.15C96.492 27.982 95.994 27.772 95.538 27.52C95.094 27.268 94.734 26.932 94.458 26.512C94.182 26.08 94.044 25.528 94.044 24.856C94.044 24.208 94.212 23.614 94.548 23.074C94.896 22.522 95.424 22.084 96.132 21.76C96.852 21.424 97.764 21.256 98.868 21.256C99.6 21.256 100.326 21.352 101.046 21.544C101.766 21.736 102.39 22.012 102.918 22.372L102.324 23.812C101.784 23.452 101.214 23.194 100.614 23.038C100.014 22.87 99.432 22.786 98.868 22.786C98.16 22.786 97.578 22.876 97.122 23.056C96.666 23.236 96.33 23.476 96.114 23.776C95.91 24.076 95.808 24.412 95.808 24.784C95.808 25.228 95.946 25.582 96.222 25.846C96.51 26.11 96.876 26.32 97.32 26.476C97.776 26.632 98.274 26.776 98.814 26.908C99.354 27.028 99.894 27.166 100.434 27.322C100.986 27.478 101.484 27.682 101.928 27.934C102.384 28.186 102.75 28.522 103.026 28.942C103.302 29.362 103.44 29.902 103.44 30.562C103.44 31.198 103.266 31.792 102.918 32.344C102.57 32.884 102.03 33.322 101.298 33.658C100.578 33.982 99.666 34.144 98.562 34.144ZM105.818 34V24.46H107.546V34H105.818ZM106.682 22.624C106.346 22.624 106.064 22.516 105.836 22.3C105.62 22.084 105.512 21.82 105.512 21.508C105.512 21.184 105.62 20.914 105.836 20.698C106.064 20.482 106.346 20.374 106.682 20.374C107.018 20.374 107.294 20.482 107.51 20.698C107.738 20.902 107.852 21.16 107.852 21.472C107.852 21.796 107.744 22.072 107.528 22.3C107.312 22.516 107.03 22.624 106.682 22.624ZM115.021 37.6C114.145 37.6 113.293 37.474 112.465 37.222C111.649 36.982 110.983 36.634 110.467 36.178L111.295 34.846C111.739 35.23 112.285 35.53 112.933 35.746C113.581 35.974 114.259 36.088 114.967 36.088C116.095 36.088 116.923 35.824 117.451 35.296C117.979 34.768 118.243 33.964 118.243 32.884V30.868L118.423 28.978L118.333 27.07V24.46H119.971V32.704C119.971 34.384 119.551 35.62 118.711 36.412C117.871 37.204 116.641 37.6 115.021 37.6ZM114.805 33.604C113.881 33.604 113.053 33.412 112.321 33.028C111.601 32.632 111.025 32.086 110.593 31.39C110.173 30.694 109.963 29.89 109.963 28.978C109.963 28.054 110.173 27.25 110.593 26.566C111.025 25.87 111.601 25.33 112.321 24.946C113.053 24.562 113.881 24.37 114.805 24.37C115.621 24.37 116.365 24.538 117.037 24.874C117.709 25.198 118.243 25.702 118.639 26.386C119.047 27.07 119.251 27.934 119.251 28.978C119.251 30.01 119.047 30.868 118.639 31.552C118.243 32.236 117.709 32.752 117.037 33.1C116.365 33.436 115.621 33.604 114.805 33.604ZM115.003 32.092C115.639 32.092 116.203 31.96 116.695 31.696C117.187 31.432 117.571 31.066 117.847 30.598C118.135 30.13 118.279 29.59 118.279 28.978C118.279 28.366 118.135 27.826 117.847 27.358C117.571 26.89 117.187 26.53 116.695 26.278C116.203 26.014 115.639 25.882 115.003 25.882C114.367 25.882 113.797 26.014 113.293 26.278C112.801 26.53 112.411 26.89 112.123 27.358C111.847 27.826 111.709 28.366 111.709 28.978C111.709 29.59 111.847 30.13 112.123 30.598C112.411 31.066 112.801 31.432 113.293 31.696C113.797 31.96 114.367 32.092 115.003 32.092ZM128.367 24.37C129.147 24.37 129.831 24.52 130.419 24.82C131.019 25.12 131.487 25.576 131.823 26.188C132.159 26.8 132.327 27.574 132.327 28.51V34H130.599V28.708C130.599 27.784 130.371 27.088 129.915 26.62C129.471 26.152 128.841 25.918 128.025 25.918C127.413 25.918 126.879 26.038 126.423 26.278C125.967 26.518 125.613 26.872 125.361 27.34C125.121 27.808 125.001 28.39 125.001 29.086V34H123.273V24.46H124.929V27.034L124.659 26.35C124.971 25.726 125.451 25.24 126.099 24.892C126.747 24.544 127.503 24.37 128.367 24.37ZM144.373 34.108C143.557 34.108 142.837 33.958 142.213 33.658C141.601 33.358 141.121 32.902 140.773 32.29C140.437 31.666 140.269 30.886 140.269 29.95V24.46H141.997V29.752C141.997 30.688 142.219 31.39 142.663 31.858C143.119 32.326 143.755 32.56 144.571 32.56C145.171 32.56 145.693 32.44 146.137 32.2C146.581 31.948 146.923 31.588 147.163 31.12C147.403 30.64 147.523 30.064 147.523 29.392V24.46H149.251V34H147.613V31.426L147.883 32.11C147.571 32.746 147.103 33.238 146.479 33.586C145.855 33.934 145.153 34.108 144.373 34.108ZM157.598 34.108C156.806 34.108 156.08 33.928 155.42 33.568C154.772 33.196 154.25 32.65 153.854 31.93C153.47 31.21 153.278 30.31 153.278 29.23C153.278 28.15 153.464 27.25 153.836 26.53C154.22 25.81 154.736 25.27 155.384 24.91C156.044 24.55 156.782 24.37 157.598 24.37C158.534 24.37 159.362 24.574 160.082 24.982C160.802 25.39 161.372 25.96 161.792 26.692C162.212 27.412 162.422 28.258 162.422 29.23C162.422 30.202 162.212 31.054 161.792 31.786C161.372 32.518 160.802 33.088 160.082 33.496C159.362 33.904 158.534 34.108 157.598 34.108ZM152.54 37.492V24.46H154.196V27.034L154.088 29.248L154.268 31.462V37.492H152.54ZM157.454 32.596C158.066 32.596 158.612 32.458 159.092 32.182C159.584 31.906 159.968 31.516 160.244 31.012C160.532 30.496 160.676 29.902 160.676 29.23C160.676 28.546 160.532 27.958 160.244 27.466C159.968 26.962 159.584 26.572 159.092 26.296C158.612 26.02 158.066 25.882 157.454 25.882C156.854 25.882 156.308 26.02 155.816 26.296C155.336 26.572 154.952 26.962 154.664 27.466C154.388 27.958 154.25 28.546 154.25 29.23C154.25 29.902 154.388 30.496 154.664 31.012C154.952 31.516 155.336 31.906 155.816 32.182C156.308 32.458 156.854 32.596 157.454 32.596ZM171.66 34L168.114 24.46H169.752L172.902 33.1H172.128L175.404 24.46H176.862L180.066 33.1H179.31L182.532 24.46H184.08L180.516 34H178.86L175.854 26.116H176.358L173.316 34H171.66ZM185.833 34V24.46H187.561V34H185.833ZM186.697 22.624C186.361 22.624 186.079 22.516 185.851 22.3C185.635 22.084 185.527 21.82 185.527 21.508C185.527 21.184 185.635 20.914 185.851 20.698C186.079 20.482 186.361 20.374 186.697 20.374C187.033 20.374 187.309 20.482 187.525 20.698C187.753 20.902 187.867 21.16 187.867 21.472C187.867 21.796 187.759 22.072 187.543 22.3C187.327 22.516 187.045 22.624 186.697 22.624ZM194.137 34.108C193.177 34.108 192.433 33.85 191.905 33.334C191.377 32.818 191.113 32.08 191.113 31.12V22.372H192.841V31.048C192.841 31.564 192.967 31.96 193.219 32.236C193.483 32.512 193.855 32.65 194.335 32.65C194.875 32.65 195.325 32.5 195.685 32.2L196.225 33.442C195.961 33.67 195.643 33.838 195.271 33.946C194.911 34.054 194.533 34.108 194.137 34.108ZM189.493 25.882V24.46H195.577V25.882H189.493ZM203.408 24.37C204.188 24.37 204.872 24.52 205.46 24.82C206.06 25.12 206.528 25.576 206.864 26.188C207.2 26.8 207.368 27.574 207.368 28.51V34H205.64V28.708C205.64 27.784 205.412 27.088 204.956 26.62C204.512 26.152 203.882 25.918 203.066 25.918C202.454 25.918 201.92 26.038 201.464 26.278C201.008 26.518 200.654 26.872 200.402 27.34C200.162 27.808 200.042 28.39 200.042 29.086V34H198.314V20.644H200.042V27.034L199.7 26.35C200.012 25.726 200.492 25.24 201.14 24.892C201.788 24.544 202.544 24.37 203.408 24.37ZM221.34 34.144C220.368 34.144 219.474 33.988 218.658 33.676C217.842 33.352 217.134 32.902 216.534 32.326C215.934 31.738 215.466 31.054 215.13 30.274C214.794 29.494 214.626 28.636 214.626 27.7C214.626 26.764 214.794 25.906 215.13 25.126C215.466 24.346 215.934 23.668 216.534 23.092C217.146 22.504 217.86 22.054 218.676 21.742C219.492 21.418 220.392 21.256 221.376 21.256C222.372 21.256 223.284 21.418 224.112 21.742C224.94 22.066 225.642 22.552 226.218 23.2L225.102 24.316C224.586 23.812 224.022 23.446 223.41 23.218C222.81 22.978 222.156 22.858 221.448 22.858C220.728 22.858 220.056 22.978 219.432 23.218C218.82 23.458 218.286 23.794 217.83 24.226C217.386 24.658 217.038 25.174 216.786 25.774C216.546 26.362 216.426 27.004 216.426 27.7C216.426 28.384 216.546 29.026 216.786 29.626C217.038 30.214 217.386 30.73 217.83 31.174C218.286 31.606 218.82 31.942 219.432 32.182C220.044 32.422 220.71 32.542 221.43 32.542C222.102 32.542 222.744 32.44 223.356 32.236C223.98 32.02 224.556 31.666 225.084 31.174L226.11 32.542C225.486 33.07 224.754 33.472 223.914 33.748C223.086 34.012 222.228 34.144 221.34 34.144ZM224.382 32.308V27.628H226.11V32.542L224.382 32.308ZM233.39 34.108C232.43 34.108 231.578 33.898 230.834 33.478C230.09 33.058 229.502 32.482 229.07 31.75C228.638 31.006 228.422 30.166 228.422 29.23C228.422 28.282 228.638 27.442 229.07 26.71C229.502 25.978 230.09 25.408 230.834 25C231.578 24.58 232.43 24.37 233.39 24.37C234.338 24.37 235.184 24.58 235.928 25C236.684 25.408 237.272 25.978 237.692 26.71C238.124 27.43 238.34 28.27 238.34 29.23C238.34 30.178 238.124 31.018 237.692 31.75C237.272 32.482 236.684 33.058 235.928 33.478C235.184 33.898 234.338 34.108 233.39 34.108ZM233.39 32.596C234.002 32.596 234.548 32.458 235.028 32.182C235.52 31.906 235.904 31.516 236.18 31.012C236.456 30.496 236.594 29.902 236.594 29.23C236.594 28.546 236.456 27.958 236.18 27.466C235.904 26.962 235.52 26.572 235.028 26.296C234.548 26.02 234.002 25.882 233.39 25.882C232.778 25.882 232.232 26.02 231.752 26.296C231.272 26.572 230.888 26.962 230.6 27.466C230.312 27.958 230.168 28.546 230.168 29.23C230.168 29.902 230.312 30.496 230.6 31.012C230.888 31.516 231.272 31.906 231.752 32.182C232.232 32.458 232.778 32.596 233.39 32.596ZM244.816 34.108C243.856 34.108 243.004 33.898 242.26 33.478C241.516 33.058 240.928 32.482 240.496 31.75C240.064 31.006 239.848 30.166 239.848 29.23C239.848 28.282 240.064 27.442 240.496 26.71C240.928 25.978 241.516 25.408 242.26 25C243.004 24.58 243.856 24.37 244.816 24.37C245.764 24.37 246.61 24.58 247.354 25C248.11 25.408 248.698 25.978 249.118 26.71C249.55 27.43 249.766 28.27 249.766 29.23C249.766 30.178 249.55 31.018 249.118 31.75C248.698 32.482 248.11 33.058 247.354 33.478C246.61 33.898 245.764 34.108 244.816 34.108ZM244.816 32.596C245.428 32.596 245.974 32.458 246.454 32.182C246.946 31.906 247.33 31.516 247.606 31.012C247.882 30.496 248.02 29.902 248.02 29.23C248.02 28.546 247.882 27.958 247.606 27.466C247.33 26.962 246.946 26.572 246.454 26.296C245.974 26.02 245.428 25.882 244.816 25.882C244.204 25.882 243.658 26.02 243.178 26.296C242.698 26.572 242.314 26.962 242.026 27.466C241.738 27.958 241.594 28.546 241.594 29.23C241.594 29.902 241.738 30.496 242.026 31.012C242.314 31.516 242.698 31.906 243.178 32.182C243.658 32.458 244.204 32.596 244.816 32.596ZM256.332 37.6C255.456 37.6 254.604 37.474 253.776 37.222C252.96 36.982 252.294 36.634 251.778 36.178L252.606 34.846C253.05 35.23 253.596 35.53 254.244 35.746C254.892 35.974 255.57 36.088 256.278 36.088C257.406 36.088 258.234 35.824 258.762 35.296C259.29 34.768 259.554 33.964 259.554 32.884V30.868L259.734 28.978L259.644 27.07V24.46H261.282V32.704C261.282 34.384 260.862 35.62 260.022 36.412C259.182 37.204 257.952 37.6 256.332 37.6ZM256.116 33.604C255.192 33.604 254.364 33.412 253.632 33.028C252.912 32.632 252.336 32.086 251.904 31.39C251.484 30.694 251.274 29.89 251.274 28.978C251.274 28.054 251.484 27.25 251.904 26.566C252.336 25.87 252.912 25.33 253.632 24.946C254.364 24.562 255.192 24.37 256.116 24.37C256.932 24.37 257.676 24.538 258.348 24.874C259.02 25.198 259.554 25.702 259.95 26.386C260.358 27.07 260.562 27.934 260.562 28.978C260.562 30.01 260.358 30.868 259.95 31.552C259.554 32.236 259.02 32.752 258.348 33.1C257.676 33.436 256.932 33.604 256.116 33.604ZM256.314 32.092C256.95 32.092 257.514 31.96 258.006 31.696C258.498 31.432 258.882 31.066 259.158 30.598C259.446 30.13 259.59 29.59 259.59 28.978C259.59 28.366 259.446 27.826 259.158 27.358C258.882 26.89 258.498 26.53 258.006 26.278C257.514 26.014 256.95 25.882 256.314 25.882C255.678 25.882 255.108 26.014 254.604 26.278C254.112 26.53 253.722 26.89 253.434 27.358C253.158 27.826 253.02 28.366 253.02 28.978C253.02 29.59 253.158 30.13 253.434 30.598C253.722 31.066 254.112 31.432 254.604 31.696C255.108 31.96 255.678 32.092 256.314 32.092ZM264.583 34V20.644H266.311V34H264.583ZM273.859 34.108C272.839 34.108 271.939 33.898 271.159 33.478C270.391 33.058 269.791 32.482 269.359 31.75C268.939 31.018 268.729 30.178 268.729 29.23C268.729 28.282 268.933 27.442 269.341 26.71C269.761 25.978 270.331 25.408 271.051 25C271.783 24.58 272.605 24.37 273.517 24.37C274.441 24.37 275.257 24.574 275.965 24.982C276.673 25.39 277.225 25.966 277.621 26.71C278.029 27.442 278.233 28.3 278.233 29.284C278.233 29.356 278.227 29.44 278.215 29.536C278.215 29.632 278.209 29.722 278.197 29.806H270.079V28.564H277.297L276.595 28.996C276.607 28.384 276.481 27.838 276.217 27.358C275.953 26.878 275.587 26.506 275.119 26.242C274.663 25.966 274.129 25.828 273.517 25.828C272.917 25.828 272.383 25.966 271.915 26.242C271.447 26.506 271.081 26.884 270.817 27.376C270.553 27.856 270.421 28.408 270.421 29.032V29.32C270.421 29.956 270.565 30.526 270.853 31.03C271.153 31.522 271.567 31.906 272.095 32.182C272.623 32.458 273.229 32.596 273.913 32.596C274.477 32.596 274.987 32.5 275.443 32.308C275.911 32.116 276.319 31.828 276.667 31.444L277.621 32.56C277.189 33.064 276.649 33.448 276.001 33.712C275.365 33.976 274.651 34.108 273.859 34.108Z" fill="black"/>
<path d="M34.2662 25.7645C35.1988 22.9386 37.8544 20.9091 41 20.9091C42.6909 20.9091 44.2182 21.5091 45.4182 22.4909L48.9091 19C46.7818 17.1455 44.0545 16 41 16C36.2701 16 32.1977 18.6983 30.24 22.65L34.2662 25.7645Z" fill="#4A90E2"/>
<path d="M45.0407 34.0126C43.9509 34.7163 42.5661 35.0909 41 35.0909C37.8665 35.0909 35.2191 33.0769 34.277 30.2679L30.2375 33.335C32.1928 37.2936 36.265 40 41 40C43.9328 40 46.7353 38.9574 48.8342 36.9996L45.0407 34.0126Z" fill="#FFD500"/>
<path d="M48.8342 36.9996C51.0292 34.9521 52.4545 31.9037 52.4545 28C52.4545 27.2909 52.3455 26.5273 52.1818 25.8182H41V30.4545H47.4364C47.1188 32.0136 46.2663 33.2212 45.0407 34.0126L48.8342 36.9996Z" fill="#FFD500"/>
<path d="M34.277 30.2679C34.0383 29.5563 33.9091 28.7938 33.9091 28C33.9091 27.2183 34.0344 26.4668 34.2662 25.7645L30.24 22.65C29.4366 24.2604 29 26.0754 29 28C29 29.9195 29.4448 31.7302 30.2375 33.335L34.277 30.2679Z" fill="#4A90E2"/>
</svg>
