<svg width="102" height="20" viewBox="0 0 102 20" fill="none" xmlns="http://www.w3.org/2000/svg">
<path d="M5.94861 12.2515L3.67582 19.2269L9.62443 14.9138L15.5699 19.2269L13.3018 12.2515L19.2473 7.94313H11.8972L9.62443 0.970886L7.35164 7.94313H0L5.94861 12.2515Z" fill="#F8CF2C"/>
<path d="M32.4792 7.94314L30.2065 0.970894L27.9337 7.94314H20.582L26.5306 12.2515L24.2579 19.2269L30.2065 14.9138L36.1551 19.2269L33.8823 12.2515L39.8325 7.94314H32.4792Z" fill="#F8CF2C"/>
<path d="M53.0613 7.94314L50.7885 0.970894L48.5157 7.94314H41.1641L47.1127 12.2515L44.8399 19.2269L50.7885 14.9138L56.7371 19.2269L54.4643 12.2515L60.4129 7.94314H53.0613Z" fill="#F8CF2C"/>
<path d="M73.6432 7.94314L71.3704 0.970894L69.0976 7.94314H61.7444L67.6946 12.2515L65.4218 19.2269L71.3704 14.9138L77.319 19.2269L75.0462 12.2515L80.9948 7.94314H73.6432Z" fill="#F8CF2C"/>
<path d="M94.2247 7.94313L91.9519 0.970886L89.6792 7.94313H82.3291L88.2745 12.2515L86.0017 19.2269L91.9519 14.9138L97.9005 19.2269L95.6277 12.2515L101.576 7.94313H94.2247Z" fill="#CCCCCC"/>
</svg>
