<svg width="324" height="54" viewBox="0 0 324 54" fill="none" xmlns="http://www.w3.org/2000/svg">
<g filter="url(#filter0_d_152_1927)">
<rect x="6" y="2" width="312" height="42" rx="10" fill="white"/>
</g>
<path d="M284 30C288.418 30 292 26.4183 292 22C292 17.5817 288.418 14 284 14C279.582 14 276 17.5817 276 22C276 26.4183 279.582 30 284 30Z" stroke="black" stroke-opacity="0.25" stroke-width="2" stroke-linecap="round" stroke-linejoin="round"/>
<path d="M294 32L289.65 27.65" stroke="black" stroke-opacity="0.25" stroke-width="2" stroke-linecap="round" stroke-linejoin="round"/>
<path d="M30.2339 17.4453H31.894V22.0107H37.356V17.4453H39.0161V29H37.356V23.4717H31.894V29H30.2339V17.4453ZM44.5278 20.3423C45.048 20.3423 45.3468 19.9964 45.4243 19.3047C45.4465 19.0723 45.4575 18.8011 45.4575 18.4912V17.0884H46.8853V18.4746C46.8853 19.5814 46.7358 20.3672 46.437 20.832C46.0828 21.3743 45.4465 21.6455 44.5278 21.6455V20.3423ZM41.938 16.6484H43.5981V25.7544C43.5981 26.8501 43.8472 27.4948 44.3452 27.6885C44.5112 27.7549 44.6883 27.7881 44.8765 27.7881C45.0646 27.7881 45.2334 27.766 45.3828 27.7217V29L45.0757 29.0332C44.9761 29.0443 44.8792 29.0498 44.7852 29.0498C43.7227 29.0498 42.9562 28.7012 42.4858 28.0039C42.1206 27.4561 41.938 26.709 41.938 25.7627V16.6484ZM49.0518 27.4727C48.8691 27.1572 48.7225 26.7865 48.6118 26.3604C48.5067 25.9342 48.4541 25.3781 48.4541 24.6919C48.4541 24.0057 48.6007 23.3748 48.894 22.7993C49.1929 22.2183 49.5802 21.7424 50.0562 21.3716C50.9803 20.6577 52.1286 20.3008 53.501 20.3008C54.2148 20.3008 54.7544 20.3174 55.1196 20.3506C55.1196 20.3506 55.388 20.3783 55.9248 20.4336V29H54.4307L54.3643 28.0122C54.0322 28.4549 53.5259 28.7842 52.8452 29C52.5851 29.083 52.3167 29.1245 52.04 29.1245C51.7689 29.1245 51.5005 29.0968 51.2349 29.0415C50.9692 28.9862 50.7036 28.8949 50.438 28.7676C50.1779 28.6403 49.9289 28.4715 49.6909 28.2612C49.453 28.0454 49.2399 27.7826 49.0518 27.4727ZM54.2646 21.6538C53.9105 21.6095 53.5563 21.5874 53.2021 21.5874C52.8535 21.5874 52.48 21.651 52.0815 21.7783C51.6831 21.9001 51.3428 22.0938 51.0605 22.3594C50.474 22.9128 50.1807 23.7567 50.1807 24.8911C50.1807 25.9647 50.4325 26.7588 50.936 27.2734C51.3179 27.6553 51.7772 27.8462 52.314 27.8462C53.0057 27.8462 53.5757 27.5944 54.0239 27.0908C54.1346 26.9635 54.2148 26.8501 54.2646 26.7505V21.6538ZM59.876 21.3716C60.3574 21.0008 60.897 20.7297 61.4946 20.5581C62.0978 20.3866 62.6235 20.3008 63.0718 20.3008C63.52 20.3008 63.8659 20.3118 64.1094 20.334V16.6484H65.7612V29H64.2754L64.209 28.0122C63.8714 28.4604 63.3595 28.7925 62.6733 29.0083C62.4077 29.0913 62.1366 29.1328 61.8599 29.1328C61.5887 29.1328 61.3203 29.1051 61.0547 29.0498C60.7891 28.9945 60.5234 28.9032 60.2578 28.7759C59.9977 28.6431 59.7487 28.4715 59.5107 28.2612C59.2728 28.0454 59.0597 27.7826 58.8716 27.4727C58.4731 26.792 58.2739 25.9868 58.2739 25.0571C58.2739 24.1274 58.4206 23.3748 58.7139 22.7993C59.0127 22.2183 59.4001 21.7424 59.876 21.3716ZM60.8804 22.3594C60.5981 22.625 60.3796 22.9681 60.2246 23.3887C60.0752 23.8037 60.0005 24.3101 60.0005 24.9077C60.0005 25.4998 60.0724 25.9896 60.2163 26.377C60.3602 26.7588 60.54 27.0576 60.7559 27.2734C61.1377 27.6608 61.597 27.8545 62.1338 27.8545C62.8255 27.8545 63.3983 27.5999 63.8521 27.0908C63.9683 26.9635 64.0513 26.8501 64.1011 26.7505V21.6455L63.9351 21.6289C63.6805 21.5957 63.3761 21.5791 63.022 21.5791C62.6733 21.5791 62.2998 21.6427 61.9014 21.77C61.5029 21.8918 61.1626 22.0882 60.8804 22.3594ZM68.874 27.4727C68.6914 27.1572 68.5448 26.7865 68.4341 26.3604C68.3289 25.9342 68.2764 25.3781 68.2764 24.6919C68.2764 24.0057 68.423 23.3748 68.7163 22.7993C69.0151 22.2183 69.4025 21.7424 69.8784 21.3716C70.8026 20.6577 71.9508 20.3008 73.3232 20.3008C74.0371 20.3008 74.5767 20.3174 74.9419 20.3506C74.9419 20.3506 75.2103 20.3783 75.7471 20.4336V29H74.2529L74.1865 28.0122C73.8545 28.4549 73.3481 28.7842 72.6675 29C72.4074 29.083 72.139 29.1245 71.8623 29.1245C71.5911 29.1245 71.3228 29.0968 71.0571 29.0415C70.7915 28.9862 70.5259 28.8949 70.2603 28.7676C70.0002 28.6403 69.7511 28.4715 69.5132 28.2612C69.2752 28.0454 69.0622 27.7826 68.874 27.4727ZM74.0869 21.6538C73.7327 21.6095 73.3786 21.5874 73.0244 21.5874C72.6758 21.5874 72.3022 21.651 71.9038 21.7783C71.5054 21.9001 71.165 22.0938 70.8828 22.3594C70.2962 22.9128 70.0029 23.7567 70.0029 24.8911C70.0029 25.9647 70.2547 26.7588 70.7583 27.2734C71.1401 27.6553 71.5994 27.8462 72.1362 27.8462C72.828 27.8462 73.3979 27.5944 73.8462 27.0908C73.9569 26.9635 74.0371 26.8501 74.0869 26.7505V21.6538ZM80.3374 17.9351C80.3374 18.2505 80.2323 18.494 80.022 18.6655C79.8172 18.8315 79.5599 18.9146 79.25 18.9146C78.9401 18.9146 78.6828 18.8315 78.478 18.6655C78.2788 18.494 78.1792 18.2505 78.1792 17.9351C78.1792 17.6141 78.2788 17.3706 78.478 17.2046C78.6828 17.0386 78.9401 16.9556 79.25 16.9556C79.5599 16.9556 79.8172 17.0386 80.022 17.2046C80.2323 17.3706 80.3374 17.6141 80.3374 17.9351ZM78.4116 20.4336H80.0718V29.166C80.0718 30.6657 79.6014 31.6646 78.6606 32.1626C78.2899 32.3563 77.8112 32.4531 77.2246 32.4531C77.1305 32.4531 77.0337 32.4476 76.9341 32.4365L76.627 32.4033V31.125C76.7764 31.1693 76.9451 31.1914 77.1333 31.1914C77.3215 31.1914 77.4985 31.1582 77.6646 31.0918C77.8361 31.0254 77.9772 30.9147 78.0879 30.7598C78.3037 30.4499 78.4116 29.9159 78.4116 29.1577V20.4336ZM90.0991 32.3203H88.439V20.4336H89.9331L89.9995 21.4131C90.3315 20.9704 90.8407 20.6411 91.5269 20.4253C91.7925 20.3423 92.0609 20.3008 92.332 20.3008C92.6087 20.3008 92.8799 20.3312 93.1455 20.3921C93.4111 20.4474 93.674 20.5415 93.9341 20.6743C94.1942 20.8016 94.4432 20.9731 94.6812 21.189C94.9191 21.3993 95.1294 21.6621 95.312 21.9775C95.7104 22.6582 95.9097 23.5021 95.9097 24.5093C95.9097 26.0477 95.3784 27.2236 94.3159 28.0371C93.3752 28.762 92.2297 29.1245 90.8794 29.1245H90.4644C90.3315 29.1245 90.2098 29.1217 90.0991 29.1162V32.3203ZM90.0991 27.7715C90.2541 27.8158 90.5584 27.8379 91.0122 27.8379C91.466 27.8379 91.8921 27.7743 92.2905 27.647C92.689 27.5197 93.0265 27.3232 93.3032 27.0576C93.8898 26.4932 94.1831 25.6437 94.1831 24.5093C94.1831 23.4412 93.9285 22.6527 93.4194 22.1436C93.0431 21.7673 92.5838 21.5791 92.0415 21.5791C91.3608 21.5791 90.7964 21.8309 90.3481 22.3345C90.2319 22.4618 90.1489 22.5752 90.0991 22.6748V27.7715ZM103.688 21.9526C103.383 21.8641 103.018 21.8198 102.592 21.8198C102.171 21.8198 101.825 21.8641 101.554 21.9526C101.283 22.0356 101.045 22.138 100.84 22.2598C100.464 22.4811 100.19 22.7301 100.019 23.0068V29H98.3584V20.4336H99.9521L100.019 21.6206C100.434 21.1004 101.04 20.7103 101.836 20.4502C102.124 20.3506 102.453 20.3008 102.824 20.3008C103.195 20.3008 103.483 20.3285 103.688 20.3838V21.9526ZM105.713 27.4727C105.53 27.1572 105.384 26.7865 105.273 26.3604C105.168 25.9342 105.115 25.3781 105.115 24.6919C105.115 24.0057 105.262 23.3748 105.555 22.7993C105.854 22.2183 106.241 21.7424 106.717 21.3716C107.641 20.6577 108.79 20.3008 110.162 20.3008C110.876 20.3008 111.416 20.3174 111.781 20.3506C111.781 20.3506 112.049 20.3783 112.586 20.4336V29H111.092L111.025 28.0122C110.693 28.4549 110.187 28.7842 109.506 29C109.246 29.083 108.978 29.1245 108.701 29.1245C108.43 29.1245 108.162 29.0968 107.896 29.0415C107.63 28.9862 107.365 28.8949 107.099 28.7676C106.839 28.6403 106.59 28.4715 106.352 28.2612C106.114 28.0454 105.901 27.7826 105.713 27.4727ZM110.926 21.6538C110.572 21.6095 110.217 21.5874 109.863 21.5874C109.515 21.5874 109.141 21.651 108.743 21.7783C108.344 21.9001 108.004 22.0938 107.722 22.3594C107.135 22.9128 106.842 23.7567 106.842 24.8911C106.842 25.9647 107.094 26.7588 107.597 27.2734C107.979 27.6553 108.438 27.8462 108.975 27.8462C109.667 27.8462 110.237 27.5944 110.685 27.0908C110.796 26.9635 110.876 26.8501 110.926 26.7505V21.6538ZM110.884 15.5444H112.827L110.436 18.5908H108.958L110.884 15.5444ZM121.393 28.9751C121.061 29.0802 120.486 29.1328 119.667 29.1328C118.847 29.1328 118.15 29.0332 117.575 28.834C117.005 28.6348 116.518 28.3415 116.114 27.9541C115.278 27.1517 114.86 26.0394 114.86 24.6172C114.86 23.2393 115.361 22.1546 116.363 21.3633C117.259 20.6549 118.361 20.3008 119.667 20.3008C120.474 20.3008 121.028 20.3285 121.327 20.3838V21.8613C120.862 21.7119 120.331 21.6372 119.733 21.6372C119.141 21.6372 118.648 21.7202 118.255 21.8862C117.862 22.0467 117.542 22.2653 117.292 22.542C116.822 23.0677 116.587 23.7594 116.587 24.6172C116.587 26.0671 117.11 27.0327 118.156 27.5142C118.527 27.6857 118.889 27.7715 119.243 27.7715C119.597 27.7715 119.868 27.7632 120.057 27.7466C120.25 27.73 120.433 27.7078 120.604 27.6802C120.97 27.6193 121.233 27.5557 121.393 27.4893V28.9751ZM129.312 26.8999V20.4336H130.972V29H129.478L129.329 28.0952C128.51 28.7869 127.605 29.1328 126.614 29.1328C125.563 29.1328 124.819 28.8423 124.381 28.2612C123.928 27.6691 123.701 26.6481 123.701 25.1982V20.4336H125.361V25.1152C125.361 26.139 125.507 26.8363 125.801 27.207C126.061 27.5391 126.556 27.7051 127.287 27.7051C128.023 27.7051 128.698 27.4367 129.312 26.8999ZM142.394 27.6885C142.577 27.7549 142.853 27.7881 143.224 27.7881C143.595 27.7881 143.905 27.7438 144.154 27.6553V28.9834C144.038 29.0111 143.869 29.0277 143.647 29.0332L143.125 29.0498C143.008 29.0498 142.92 29.0498 142.859 29.0498C141.791 29.0498 141.002 28.7012 140.493 28.0039C140.084 27.4395 139.879 26.6924 139.879 25.7627V21.7036H138.65V20.9233L139.879 20.4336L140.277 18.3086H141.539V20.4336H144.195V21.7036H141.539V25.7544C141.539 26.839 141.824 27.4837 142.394 27.6885ZM151.99 26.8999V20.4336H153.65V29H152.156L152.006 28.0952C151.187 28.7869 150.283 29.1328 149.292 29.1328C148.241 29.1328 147.496 28.8423 147.059 28.2612C146.605 27.6691 146.378 26.6481 146.378 25.1982V20.4336H148.039V25.1152C148.039 26.139 148.185 26.8363 148.479 27.207C148.739 27.5391 149.234 27.7051 149.964 27.7051C150.7 27.7051 151.375 27.4367 151.99 26.8999Z" fill="black" fill-opacity="0.25"/>
<defs>
<filter id="filter0_d_152_1927" x="0" y="0" width="324" height="54" filterUnits="userSpaceOnUse" color-interpolation-filters="sRGB">
<feFlood flood-opacity="0" result="BackgroundImageFix"/>
<feColorMatrix in="SourceAlpha" type="matrix" values="0 0 0 0 0 0 0 0 0 0 0 0 0 0 0 0 0 0 127 0" result="hardAlpha"/>
<feMorphology radius="1" operator="dilate" in="SourceAlpha" result="effect1_dropShadow_152_1927"/>
<feOffset dy="4"/>
<feGaussianBlur stdDeviation="2.5"/>
<feComposite in2="hardAlpha" operator="out"/>
<feColorMatrix type="matrix" values="0 0 0 0 0 0 0 0 0 0 0 0 0 0 0 0 0 0 0.25 0"/>
<feBlend mode="normal" in2="BackgroundImageFix" result="effect1_dropShadow_152_1927"/>
<feBlend mode="normal" in="SourceGraphic" in2="effect1_dropShadow_152_1927" result="shape"/>
</filter>
</defs>
</svg>
