<svg width="331" height="308" viewBox="0 0 331 308" fill="none" xmlns="http://www.w3.org/2000/svg">
<path d="M223.117 218.345H104.379C94.3979 218.345 86.2782 210.242 86.2782 200.282V81.7877C86.2782 71.8276 94.3979 63.7246 104.379 63.7246H223.117C233.098 63.7246 241.218 71.8276 241.218 81.7877V200.282C241.218 210.242 233.098 218.345 223.117 218.345ZM104.379 66.6147C95.9815 66.6147 89.1742 73.4079 89.1742 81.7877V200.282C89.1742 208.662 95.9815 215.455 104.379 215.455H187.552C215.591 215.455 238.322 192.771 238.322 164.79V81.7877C238.322 73.4079 231.514 66.6147 223.117 66.6147H104.379V66.6147Z" fill="#F2F2F2"/>
<path d="M117.18 78.9368C111.56 78.9368 106.988 83.4992 106.988 89.1074V105.027C106.988 110.635 111.56 115.197 117.18 115.197H133.132C138.752 115.197 143.323 110.635 143.323 105.027V89.1074C143.323 83.4992 138.752 78.9368 133.132 78.9368H117.18Z" fill="#F2F2F2"/>
<path d="M117.18 123.751C111.56 123.751 106.988 128.314 106.988 133.922V149.841C106.988 155.449 111.56 160.012 117.18 160.012H133.132C138.752 160.012 143.323 155.449 143.323 149.841V133.922C143.323 128.314 138.752 123.751 133.132 123.751H117.18Z" fill="#F2F2F2"/>
<path d="M117.18 168.566C111.56 168.566 106.988 173.128 106.988 178.736V194.655C106.988 200.264 111.56 204.826 117.18 204.826H133.132C138.752 204.826 143.323 200.264 143.323 194.655V178.736C143.323 173.128 138.752 168.566 133.132 168.566H117.18Z" fill="#F2F2F2"/>
<path d="M127.758 40.0976C120.677 40.0976 114.916 45.8463 114.916 52.9128V72.9714C114.916 80.0379 120.677 85.7866 127.758 85.7866H147.858C154.939 85.7866 160.7 80.0379 160.7 72.9714V52.9128C160.7 45.8463 154.939 40.0976 147.858 40.0976H127.758Z" fill="#2367B1"/>
<path d="M193.932 96.153C186.851 96.153 181.091 101.902 181.091 108.968V129.027C181.091 136.093 186.851 141.842 193.932 141.842H214.032C221.113 141.842 226.874 136.093 226.874 129.027V108.968C226.874 101.902 221.113 96.153 214.032 96.153H193.932Z" fill="#2367B1"/>
<path d="M165.163 298.051L161.08 298.016L159.272 281.932L165.299 281.983L165.163 298.051Z" fill="#A0616A"/>
<path d="M152.084 304.53C152.075 305.533 152.885 306.359 153.894 306.368L162.012 306.436L163.434 303.561L163.956 306.451L167.019 306.478L166.245 296.172L165.18 296.101L160.832 295.802L159.43 295.708L159.405 298.624L152.884 303.039C152.387 303.375 152.089 303.932 152.084 304.53H152.084Z" fill="#2F2E41"/>
<path d="M185.939 298.051L181.855 298.016L180.048 281.932L186.074 281.983L185.939 298.051Z" fill="#A0616A"/>
<path d="M172.859 304.53C172.85 305.533 173.66 306.359 174.669 306.368L182.788 306.436L184.209 303.561L184.731 306.451L187.794 306.478L187.021 296.172L185.955 296.101L181.608 295.802L180.205 295.708L180.181 298.624L173.659 303.039C173.163 303.375 172.864 303.932 172.859 304.53Z" fill="#2F2E41"/>
<path d="M149.139 168.011L165.691 168.533L181.372 172.01C181.372 172.01 179.804 173.923 185.031 179.139C185.031 179.139 192 191.31 187.121 203.133L185.031 250.426C185.031 250.426 191.127 283.764 186.469 294.375L180.313 294.759L169.897 250.811L164.82 203.481L162.381 250.078C162.381 250.078 171.712 282.062 165.82 294.759L159.153 294.375L147.746 250.078C147.746 250.078 142.867 198.96 143.564 189.224C144.261 179.487 149.139 168.011 149.139 168.011H149.139Z" fill="#2F2E41"/>
<path d="M204.724 93.2814C202.461 93.8661 201.102 96.1705 201.688 98.4285C201.956 99.4632 202.589 100.305 203.411 100.861L203.411 100.867L203.09 108.626L209.039 111.373L209.514 99.4338L209.473 99.435C209.989 98.5179 210.167 97.4098 209.882 96.3112C209.296 94.0532 206.987 92.6967 204.724 93.2814V93.2814Z" fill="#A0616A"/>
<path d="M171.471 120.972C170.221 119.736 169.496 118.059 169.469 116.237C169.433 113.791 170.661 111.572 172.754 110.3C175.164 108.835 178.178 108.983 180.433 110.677L199.116 124.715L202.445 104.492L209.592 106.788L207.887 133.121C207.767 134.963 206.724 136.586 205.096 137.462C203.468 138.338 201.536 138.316 199.929 137.403L172.929 122.074C172.387 121.766 171.898 121.394 171.471 120.972V120.972Z" fill="#3F3D56"/>
<path d="M142.983 81.9697C144.177 83.9747 143.517 86.5663 141.508 87.7581C140.587 88.3043 139.544 88.4576 138.568 88.275L138.564 88.2793L133.318 94.0146L127.155 91.7857L135.241 82.9732L135.269 83.0032C135.55 81.9895 136.205 81.0773 137.183 80.4974C139.192 79.3056 141.789 79.9647 142.983 81.9697Z" fill="#A0616A"/>
<path d="M145.249 124.756L115.26 116.672C113.475 116.19 112.087 114.849 111.549 113.083C111.011 111.317 111.415 109.432 112.63 108.04L129.997 88.1414L136.692 91.5325L124.789 108.233L147.961 111.39C150.757 111.772 153.002 113.784 153.68 116.518C154.269 118.892 153.575 121.331 151.824 123.042C150.519 124.317 148.821 124.998 147.061 124.998C146.46 124.998 145.851 124.918 145.249 124.756H145.249Z" fill="#3F3D56"/>
<path d="M188.004 174.969L146.068 176.889C144.916 175.143 145.228 172.519 146.841 169.232C152.931 156.823 148.306 133.348 145.194 121.124C144.321 117.695 146.665 114.285 150.193 113.933L154.147 113.538L157.802 102.404H170.603L175.913 108.459L184.926 113.922C183.285 130.785 176.296 154.596 186.253 166.537C188.431 169.149 189.049 171.973 188.004 174.969Z" fill="#3F3D56"/>
<path d="M162.574 102.661C169.46 102.661 175.042 97.0904 175.042 90.2185C175.042 83.3466 169.46 77.7759 162.574 77.7759C155.688 77.7759 150.106 83.3466 150.106 90.2185C150.106 97.0904 155.688 102.661 162.574 102.661Z" fill="#A0616A"/>
<path d="M176.683 82.254C178.418 75.9424 159.511 70.5301 155.837 75.6128C155.326 74.8902 153.438 74.4513 152.572 74.673C151.706 74.8946 150.977 75.4488 150.266 75.9852C149.289 76.7345 148.276 77.5103 147.676 78.5876C147.072 79.6605 146.979 81.1235 147.792 82.0545C148.436 82.7948 149.568 86.7291 150.536 86.9242C151.211 87.0616 151.78 87.1725 152.269 87.2523C152.704 86.6183 153.814 85.8219 153.734 85.055C154.392 85.4894 154.152 86.2538 154.019 87.035C153.578 89.6364 143.633 109.774 149.329 103.84C149.893 104.172 150.59 104.483 151.395 104.766C152.758 102.714 153.878 100.293 154.615 97.7618L154.621 97.8086C154.874 100.008 156.485 101.814 158.617 102.43C167.167 104.902 174.083 101.275 176.462 94.7337C175.591 92.9692 175.211 93.1608 175.289 93.1084C176.377 92.3771 177.871 92.8553 178.338 94.0778C178.476 94.4382 178.601 94.7459 178.71 94.9775C179.949 90.553 181.423 91.1916 176.683 82.254H176.683Z" fill="#2F2E41"/>
<path d="M170.785 77.6748L169.911 73.219C169.838 72.8445 169.768 72.4381 169.938 72.0958C170.155 71.6561 170.714 71.4738 171.2 71.5439C171.687 71.614 172.05 72.0573 172.534 72.1427C174.217 72.4395 176.441 70.7812 177.043 74.9764C177.295 76.7256 180.091 76.9103 181.026 78.4115C181.96 79.9127 182.074 82.0795 180.8 83.3059C179.781 84.2854 178.146 84.3984 176.824 83.8981C175.502 83.3977 174.441 82.3871 173.514 81.3213C172.587 80.2556 171.747 79.1023 170.678 78.1786" fill="#2F2E41"/>
<path d="M177.349 84.4519C173.937 83.9763 171.612 82.738 170.437 80.7718C168.9 78.198 169.93 75.364 169.974 75.2446L170.695 75.5121C170.686 75.5382 169.752 78.1324 171.102 80.3853C172.153 82.1377 174.291 83.2502 177.455 83.6915L177.349 84.4519Z" fill="#2367B1"/>
<path d="M193.359 36.3071C183.33 36.3071 175.168 28.1628 175.168 18.1535C175.168 8.14427 183.33 0 193.359 0C203.389 0 211.55 8.14427 211.55 18.1535C211.55 28.1628 203.389 36.3071 193.359 36.3071ZM193.359 7.26142C187.341 7.26142 182.445 12.1473 182.445 18.1535C182.445 24.1598 187.341 29.0456 193.359 29.0456C199.378 29.0456 204.274 24.1598 204.274 18.1535C204.274 12.1473 199.378 7.26142 193.359 7.26142Z" fill="#2367B1"/>
<path d="M221.348 48.644C220.456 48.644 219.562 48.3196 218.861 47.6619L201.787 31.6942C200.32 30.3239 200.245 28.0263 201.62 26.5637C202.991 25.0958 205.294 25.0232 206.761 26.3971L223.835 42.3647C225.302 43.7351 225.377 46.0327 224.002 47.4952C223.286 48.2593 222.318 48.644 221.348 48.644Z" fill="#2367B1"/>
<path d="M298.512 297.643C299.749 297.72 300.433 296.187 299.497 295.293L299.404 294.923C299.416 294.894 299.428 294.864 299.441 294.835C300.692 291.858 304.931 291.879 306.172 294.86C307.272 297.506 308.674 300.156 309.019 302.954C309.174 304.189 309.104 305.447 308.83 306.659C311.409 301.036 312.767 294.895 312.767 288.721C312.767 287.169 312.681 285.618 312.507 284.07C312.364 282.804 312.167 281.546 311.912 280.299C310.531 273.561 307.542 267.143 303.23 261.782C301.157 260.652 299.428 258.884 298.384 256.765C298.009 256.001 297.715 255.179 297.576 254.342C297.812 254.372 298.465 250.787 298.287 250.567C298.616 250.069 299.204 249.822 299.564 249.336C301.349 246.92 303.809 247.342 305.094 250.625C307.837 252.007 307.864 254.299 306.181 256.503C305.109 257.905 304.962 259.803 304.023 261.304C304.119 261.427 304.22 261.547 304.316 261.67C306.089 263.94 307.623 266.379 308.916 268.941C308.55 266.094 309.09 262.663 310.009 260.451C311.056 257.931 313.018 255.809 314.746 253.63C316.821 251.013 321.077 252.155 321.442 255.472C321.446 255.505 321.449 255.537 321.452 255.569C321.196 255.713 320.944 255.867 320.699 256.029C319.298 256.953 319.782 259.12 321.442 259.376L321.48 259.382C321.387 260.304 321.228 261.219 320.996 262.118C323.213 270.672 318.427 273.788 311.595 273.928C311.444 274.005 311.297 274.082 311.146 274.155C311.838 276.1 312.391 278.096 312.801 280.118C313.169 281.905 313.424 283.711 313.567 285.525C313.745 287.814 313.729 290.114 313.536 292.398L313.548 292.317C314.039 289.801 315.408 287.451 317.396 285.822C320.357 283.395 324.541 282.501 327.735 280.549C329.273 279.61 331.244 280.824 330.975 282.603L330.962 282.688C330.487 282.881 330.022 283.105 329.574 283.356C329.317 283.501 329.066 283.654 328.82 283.816C327.419 284.741 327.904 286.908 329.563 287.163L329.601 287.169C329.628 287.173 329.651 287.177 329.678 287.181C328.862 289.114 327.725 290.909 326.302 292.456C324.916 299.924 318.964 300.632 312.596 298.458H312.593C311.896 301.483 310.879 304.44 309.572 307.257H298.782C298.744 307.137 298.709 307.014 298.674 306.894C299.672 306.956 300.677 306.898 301.66 306.717C300.859 305.736 300.059 304.748 299.258 303.768C299.239 303.749 299.223 303.729 299.208 303.71C298.802 303.209 298.392 302.711 297.986 302.209L297.986 302.208C297.96 300.668 298.145 299.133 298.512 297.643L298.512 297.643Z" fill="#F2F2F2"/>
<path d="M0 307.289C0 307.683 0.31736 308 0.712559 308H330.204C330.599 308 330.916 307.683 330.916 307.289C330.916 306.895 330.599 306.578 330.204 306.578H0.712559C0.31736 306.578 0 306.895 0 307.289Z" fill="#CCCCCC"/>
</svg>
