<svg width="414" height="75" viewBox="0 0 414 75" fill="none" xmlns="http://www.w3.org/2000/svg">
<g filter="url(#filter0_d_94_10)">
<path d="M-3 0V67C-2.97225 66.9864 -2.94912 66.9741 -2.92131 66.9604C-1.53774 66.2803 -0.0764959 65.5777 1.46051 64.8576C2.99751 64.1376 4.61014 63.4 6.29624 62.6502C7.98234 61.9003 9.74196 61.1381 11.5728 60.3684C13.4037 59.5987 15.3059 58.8214 17.2772 58.0419C19.2485 57.2624 21.2889 56.4807 23.3963 55.7014C25.5037 54.9221 27.6782 54.1453 29.9174 53.3763C32.1565 52.6073 34.4605 51.8462 36.827 51.0975C39.1936 50.3488 41.6229 49.6127 44.1126 48.8943C46.6022 48.1759 49.1524 47.4752 51.7608 46.7972C54.3693 46.1192 57.036 45.4637 59.7588 44.8361C62.4817 44.2084 65.2605 43.6085 68.0934 43.0412C70.9264 42.474 73.8132 41.9396 76.7519 41.4428C79.6906 40.946 82.6812 40.487 85.7213 40.0707C87.2413 39.8625 88.7739 39.665 90.3185 39.4788C91.8631 39.2927 93.4197 39.1178 94.9883 38.9549C96.5569 38.792 98.1375 38.6411 99.7296 38.5027C101.322 38.3643 102.925 38.2382 104.54 38.1256C106.155 38.013 107.781 37.9136 109.419 37.8279C111.056 37.7423 112.705 37.6705 114.364 37.6132C116.023 37.5558 117.693 37.5131 119.373 37.4853C121.054 37.4574 122.745 37.4445 124.446 37.4474C126.147 37.4502 127.858 37.4692 129.58 37.5042C131.301 37.5391 133.033 37.5902 134.774 37.6585C136.515 37.7267 138.266 37.812 140.026 37.9148C141.786 38.0176 143.556 38.1381 145.335 38.2767C147.113 38.4153 148.901 38.572 150.698 38.7476C152.495 38.9232 154.301 39.1178 156.115 39.3317C157.929 39.5456 159.752 39.7788 161.583 40.0323C163.415 40.2857 165.254 40.5593 167.102 40.8535C168.95 41.1478 170.806 41.4629 172.669 41.7993C174.533 42.1356 176.404 42.4933 178.283 42.8729C180.161 43.2526 182.048 43.6542 183.942 44.0784C185.835 44.5027 187.736 44.9496 189.644 45.4196C191.552 45.8897 193.467 46.3828 195.389 46.8999C197.31 47.417 199.239 47.9581 201.173 48.5235C203.108 49.0889 205.042 49.637 206.974 50.1684C208.906 50.6997 210.837 51.2145 212.766 51.7126C214.694 52.2107 216.621 52.6922 218.546 53.1578C220.47 53.6235 222.392 54.0731 224.311 54.507C226.23 54.941 228.146 55.3594 230.06 55.7625C231.973 56.1656 233.882 56.5534 235.789 56.9264C237.695 57.2995 239.597 57.6577 241.495 58.0015C243.394 58.3453 245.288 58.6746 247.177 58.99C249.067 59.3053 250.952 59.6065 252.831 59.8941C254.711 60.1818 256.586 60.4558 258.456 60.7165C262.194 61.2381 265.911 61.7067 269.603 62.1257C273.295 62.5446 276.961 62.9139 280.598 63.2366C284.236 63.5593 287.844 63.8356 291.42 64.0685C294.997 64.3014 298.54 64.4908 302.048 64.6403C305.556 64.7898 309.028 64.8993 312.461 64.9718C315.893 65.0443 319.287 65.0797 322.637 65.0816C325.987 65.0833 329.294 65.0518 332.555 64.9895C335.816 64.9273 339.031 64.8343 342.196 64.7142C345.36 64.5942 348.475 64.4469 351.536 64.2755C354.597 64.1041 357.605 63.9086 360.556 63.6922C363.507 63.4759 366.401 63.2388 369.234 62.9839C372.068 62.729 374.84 62.4563 377.549 62.1693C380.258 61.8822 382.903 61.5808 385.481 61.268C388.058 60.9552 390.569 60.6311 393.008 60.299C395.447 59.9669 397.815 59.6269 400.108 59.2819C402.402 58.9369 404.621 58.587 406.762 58.2355C408.903 57.884 410.966 57.5309 412.948 57.1794C413.331 57.1114 413.623 57.0476 414 56.9798V1.69346e-05L-3 0Z" fill="#2367B1"/>
</g>
<defs>
<filter id="filter0_d_94_10" x="-7" y="0" width="425" height="75" filterUnits="userSpaceOnUse" color-interpolation-filters="sRGB">
<feFlood flood-opacity="0" result="BackgroundImageFix"/>
<feColorMatrix in="SourceAlpha" type="matrix" values="0 0 0 0 0 0 0 0 0 0 0 0 0 0 0 0 0 0 127 0" result="hardAlpha"/>
<feOffset dy="4"/>
<feGaussianBlur stdDeviation="2"/>
<feComposite in2="hardAlpha" operator="out"/>
<feColorMatrix type="matrix" values="0 0 0 0 0 0 0 0 0 0 0 0 0 0 0 0 0 0 0.25 0"/>
<feBlend mode="normal" in2="BackgroundImageFix" result="effect1_dropShadow_94_10"/>
<feBlend mode="normal" in="SourceGraphic" in2="effect1_dropShadow_94_10" result="shape"/>
</filter>
</defs>
</svg>
